<svg xmlns="http://www.w3.org/2000/svg" xmlns:xlink="http://www.w3.org/1999/xlink" viewBox="0 0 74 74">
    <defs>
        <linearGradient id="gradient" x1="465" y1="504" x2="534" y2="504" gradientTransform="translate(-385 85) rotate(-28)" gradientUnits="userSpaceOnUse">
            <stop offset="0.04" stop-color="#227b85"></stop>
            <stop offset="0.97" stop-color="#52b0ba"></stop>
        </linearGradient>
        <linearGradient id="gradient2" x1="517" y1="536" x2="517" y2="470" gradientTransform="translate(-385 85) rotate(-28)" gradientUnits="userSpaceOnUse">
            <stop offset="0.04" stop-color="#227b85"></stop>
            <stop offset="1" stop-color="#fff"></stop>
        </linearGradient>
        <linearGradient id="gradient3" x1="482" y1="536" x2="482" y2="470" xlink:href="#gradient2"></linearGradient>
        <linearGradient id="gradient4" x1="482" y1="481" x2="482" y2="533" gradientTransform="translate(-385 85) rotate(-28)" gradientUnits="userSpaceOnUse">
            <stop offset="0.23" stop-color="#126973"></stop>
            <stop offset="0.84" stop-color="#227b85"></stop>
        </linearGradient>
        <linearGradient id="gradient5" x1="517" y1="481" x2="517" y2="533" xlink:href="#gradient4"></linearGradient>
    </defs>
    <path class="cls-1" fill="url(#gradient)" d="M309.28,321.89c0.27,0.88.51,1.49,0.58,1.69h0c-1.34-19.17,9.75-26.76,13.65-39.33a4.37,4.37,0,0,1,.13-0.62c0.08-.28.15-0.57,0.2-0.86,0.64-3.49-.67-7.63-3.25-12l0-.07c-0.21-.36-0.44-0.72-0.67-1.09h0c-0.43-.66-0.88-1.33-1.36-2l-0.15-.21-0.41-.55-0.42-.56-0.43-.55-0.45-.57-0.32-.4a96.15,96.15,0,0,0-15.19-14.56h0a94.09,94.09,0,0,1-.49,20.13,76,76,0,0,1-7.48,22.08,76,76,0,0,1-22.52-6,92.68,92.68,0,0,1-17-10.78c0,0.6.1,1.19,0.15,1.79,0,0.18,0,.35.05,0.53,0,0.43.08,0.85,0.13,1.28,0,0.2,0,.39.07,0.59,0,0.43.1,0.86,0.15,1.28,0,0.17,0,.35.06,0.52,0.07,0.54.14,1.08,0.22,1.61a1.31,1.31,0,0,0,0,.16c0.09,0.62.19,1.24,0.29,1.85,0,0,0,.09,0,0.14,0.09,0.55.19,1.1,0.29,1.65l0.06,0.33c0.09,0.5.19,1,.29,1.49,0,0.09,0,.19.06,0.29,0.12,0.57.24,1.14,0.37,1.7h0c0.42,1.81.88,3.55,1.39,5.23a0.43,0.43,0,0,1,0,.06,50.57,50.57,0,0,0,3,7.67l0.51,1,0,0h0c0.15,0.29.31,0.57,0.47,0.85h0l0,0c0.17,0.3.35,0.59,0.53,0.87h0l0.08,0.11h0c0.23,0.36.48,0.71,0.71,1l0.13,0.16,0,0.06c0.28,0.38.56,0.74,0.86,1.08h0c0.2,0.24.41,0.47,0.62,0.69l0.27,0.27,0.4,0.39,0.31,0.27,0.39,0.33,0.32,0.24,0.41,0.3,0.32,0.21,0.44,0.27,0.3,0.17,0.51,0.25,0.25,0.12a7.57,7.57,0,0,0,.78.29l0.47,0.18c12.63,3.79,25.22-1.13,40.42,10.53" transform="translate(-254 -250)"></path>
    <g class="cls-2">
        <path class="cls-3" fill="url(#gradient2)" d="M300.68,270.35a76,76,0,0,1-7.48,22.08c14.25,1.66,28.07-.51,30.45-8.81,2.6-9.06-9.17-23-22.48-33.4A92.76,92.76,0,0,1,300.68,270.35Z" transform="translate(-254 -250)"></path>
        <path class="cls-4" fill="url(#gradient3)" d="M270.68,286.41a92.68,92.68,0,0,1-17-10.78C254.9,292.47,260,310,269,312.87c8.22,2.63,17.7-7.67,24.23-20.44A76,76,0,0,1,270.68,286.41Z" transform="translate(-254 -250)"></path>
    </g>
    <g class="cls-5">
        <path class="cls-6" fill="url(#gradient4)" d="M282,302.37a51.23,51.23,0,0,1-28.38-26.74h0c0.77,10.32,3,20.89,6.65,28.2,0.16,0.31.32,0.63,0.49,0.93l0,0.08q0.24,0.44.48,0.85l0.07,0.11q0.24,0.41.48,0.79l0.08,0.11,0.5,0.76,0.34,0.46,0.08,0.11,0.24,0.31c0.19,0.25.39,0.49,0.58,0.72a11.87,11.87,0,0,0,5.31,3.8l0.47,0.18c12.63,3.79,25.22-1.13,40.42,10.53C308.7,322,297.9,308.27,282,302.37Z" transform="translate(-254 -250)"></path>
        <path class="cls-7" fill="url(#gradient5)" d="M323.65,283.62c2.6-9.06-9.18-23-22.48-33.4h0a51.39,51.39,0,0,1,6.44,38.45c-4,16.8,1.8,33.63,2.25,34.9h0c-1.34-19.17,9.75-26.76,13.65-39.33A4.37,4.37,0,0,1,323.65,283.62Z" transform="translate(-254 -250)"></path>
    </g>
</svg>