<svg id="f6e7002f-f3a4-40e4-9a4f-066c6587c7d1" data-name="Ebene 1" xmlns="http://www.w3.org/2000/svg"
     xmlns:xlink="http://www.w3.org/1999/xlink" viewBox="0 0 16 16">
    <defs>
        <style>
            .b7615eaa-3356-4ad3-91b2-01b2b87d464c{fill:none;}.bcc2b4f7-c5f1-4a69-a557-e189188f9355{clip-path:url(#bf2c7e89-4f31-48d0-8d77-69a879f25c00);}.ed4abb8e-d0bf-43b4-99b6-0ab61ddfd6bf{fill:#2999a4;}.a0f5ef26-3cad-478d-9f21-77d75c0ea9d4{fill:#595a62;}
        </style>
        <clipPath id="bf2c7e89-4f31-48d0-8d77-69a879f25c00" transform="translate(0 0)">
            <rect class="b7615eaa-3356-4ad3-91b2-01b2b87d464c" width="16" height="16"/>
        </clipPath>
    </defs>
    <title>netresearch-symbol_fullcolor_svg_rgb_16px</title>
    <g class="bcc2b4f7-c5f1-4a69-a557-e189188f9355">
        <path class="ed4abb8e-d0bf-43b4-99b6-0ab61ddfd6bf"
              d="M11.16,0V1.68h1.75a1.41,1.41,0,0,1,1.41,1.41v9.82a1.41,1.41,0,0,1-1.41,1.41H11.16V16h2.55A2.28,2.28,0,0,0,16,13.71V2.29A2.28,2.28,0,0,0,13.71,0ZM2.29,0A2.28,2.28,0,0,0,0,2.29V13.71A2.28,2.28,0,0,0,2.29,16H4.84V14.32H3.09a1.41,1.41,0,0,1-1.41-1.41V3.09A1.41,1.41,0,0,1,3.09,1.68H4.84V0Z"
              transform="translate(0 0)"/>
        <path class="a0f5ef26-3cad-478d-9f21-77d75c0ea9d4"
              d="M11.79,6.42c0-1.84-.74-3.08-2.61-3.08A4.18,4.18,0,0,0,5.76,4.75l0-1.17H4.21v8.84H5.89V6.65A3.32,3.32,0,0,1,8.72,4.81c1.46,0,1.34,1.4,1.39,2.44v5.17h1.68"
              transform="translate(0 0)"/>
    </g>
</svg>
