<?xml version="1.0" encoding="UTF-8" standalone="no"?>
<svg
   xmlns:dc="http://purl.org/dc/elements/1.1/"
   xmlns:cc="http://creativecommons.org/ns#"
   xmlns:rdf="http://www.w3.org/1999/02/22-rdf-syntax-ns#"
   xmlns:svg="http://www.w3.org/2000/svg"
   xmlns="http://www.w3.org/2000/svg"
   version="1.1"
   width="384"
   height="72"
   viewBox="0 0 384 72"
   xml:space="preserve">
   <title>Netresearch Logo</title>
   <metadata id="metadata8">
      <rdf:RDF>
         <cc:Work rdf:about="">
         <dc:format>image/svg+xml</dc:format>
         <dc:type rdf:resource="http://purl.org/dc/dcmitype/StillImage" />
         <dc:title>Netresearch Logo</dc:title>
         <dc:date>2016-10-21</dc:date>
         <dc:creator>
            <cc:Agent>
               <dc:title>Christian Opitz / Netresearch GmbH &amp; Co. KG</dc:title>
            </cc:Agent>
         </dc:creator>
         <dc:rights>
            <cc:Agent>
               <dc:title>Netresearch GmbH &amp; Co. KG</dc:title>
            </cc:Agent>
         </dc:rights>
         <dc:publisher>
            <cc:Agent>
               <dc:title>Netresearch GmbH &amp; Co. KG</dc:title>
            </cc:Agent>
         </dc:publisher>
         <dc:language>en-EN</dc:language>
         <dc:description>Netresearch logo altered to reach a better kerning by its edges being aligned  to common divisors of width and height</dc:description>
         </cc:Work>
      </rdf:RDF>
   </metadata>
   <g fill="#1d1d1b">
      <path d="m 51.999949,59.999885 -12.000021,0 0,-38.526257 c -1.16e-4,-1.460608 -0.427526,-2.190897 -1.777858,-2.190938 -1.350362,4.1e-5 -2.238244,0.702865 -2.222071,2.108196 l 0,38.608932 -12,0 0,-47.999422 12,0 0,1.6191 c 1.570798,-1.295185 4.275915,-1.942799 7.555349,-1.942848 2.121954,4.9e-5 3.579673,0.578768 5.370973,1.736162 1.791252,1.157487 3.0737,2.852308 3.073728,5.084473 z"/>
      <path d="m 83.999999,40 -16,0 0,11.086519 c 0,1.625938 0.622082,2.438902 2.000003,2.438894 1.350331,8e-6 1.99998,-0.812956 1.999997,-2.438894 l 0,-9.086519 12,0 0,9.169194 c 0,6.476162 -4.768056,9.230805 -14.000001,9.230806 -9.149305,-10e-7 -14.00034,-2.892434 -14.000338,-9.644179 l 0,-28.729344 c -2e-6,-6.751694 4.851033,-10.226428 14.000338,-10.226477 9.231945,4.9e-5 14.000001,3.336992 14.000001,9.813105 z m -12,-6 0,-12.30422 c -1.7e-5,-1.570773 -0.649673,-2.356178 -2.000006,-2.356219 -1.377921,4.1e-5 -1.999994,0.785446 -1.999994,2.356219 l 0,12.30422 z"/>
      <path d="m 110,59.999818 -7.40891,0 c -5.318731,0 -7.543891,-0.799185 -8.591091,-2.397556 -1.04722,-1.598367 -2,-4.671095 -2,-9.218193 l 0,-29.272637 -6,0 0,-7.111036 6,0 L 91.999999,3 104,3 l 0,9.000396 6,0 0,7.111036 -6,0 0,29.189963 c -1e-5,1.405474 0.0475,2.34934 0.88803,2.831597 0.84051,0.482275 2.27346,0.723409 5.11197,0.7234 z"/>
      <path d="m 141,31.555744 -12.00017,0 0,-10.082184 c -2e-5,-1.46054 -0.6495,-2.190829 -1.99983,-2.19087 -1.35036,4.1e-5 -2.00002,0.702772 -2,2.108196 l 0,38.608932 -12,0 0,-47.999422 12,0 0,1.6191 c 1.5708,-1.295185 4.27592,-1.819447 7.55535,-1.819496 2.34242,4.9e-5 4.09664,0.503643 5.77771,1.75749 1.68102,1.25394 2.66691,2.900535 2.66694,4.939793 z"/>
      <path d="m 175,42 12,0 0,8.8643 c -2e-5,1.625937 0.89929,2.438901 2.22208,2.438893 1.32277,8e-6 1.77774,-1.557025 1.77776,-4.671101 -2e-5,-4.051029 -0.15185,-6.669047 -1.77776,-7.854065 -6.14547,-3.224278 -10.80488,-5.477153 -12.07255,-6.75863 -1.26767,-1.281425 -2.14952,-3.203603 -2.14952,-5.766537 l 0,-6.448602 c 0,-6.751695 5.07277,-10.004209 14.22207,-10.004258 8.90126,4.9e-5 13.43546,3.123833 13.77792,9.590886 l 0,8.387099 -12.00016,0 0,-8.280815 c -2e-5,-1.167491 -0.3172,-2.379788 -1.77776,-2.379829 -1.46058,4.1e-5 -2.66666,1.253934 -2.66665,3.761685 -1e-5,2.590498 -0.23014,4.468313 0.65318,6.655302 0.6476,1.32282 4.71207,2.81094 11.27091,6.035213 2.72823,1.95665 4.52045,4.547111 4.52048,7.771391 l 0,7.19267 C 203,57.285346 198.50914,60.399999 189.22208,60.4 180.12789,60.399999 175,57.423137 175,50.946974 z"/>
      <path d="m 265,59.999818 -10.22241,0 0,-1.860173 C 253.89571,59.820691 250.79283,60.399999 246.63158,60.4 240.21053,60.399999 237,58.153426 237,53.137845 l 0,-9.631564 c 0,-2.149516 0.77853,-3.935076 2.33556,-5.533468 1.55702,-1.598347 4.69176,-3.242757 9.40421,-5.640339 2.72823,-1.377877 4.26004,-2.656977 4.26006,-3.483753 l 0,-7.375161 c -2e-5,-1.570773 -0.64951,-2.356178 -1.99983,-2.356219 -1.54327,0.559291 -1.84526,2.133208 -1.84524,4.046175 C 249.16376,24.868529 249.09056,30 249.09056,30 l -11.20168,0 0,-8.609114 c 0,-6.476113 4.20937,-9.590837 13.57914,-9.590886 C 260.23148,11.800049 265,15.052563 265,21.804258 z m -12.00017,-8.970169 0,-12.35982 C 250.29913,39.331246 248,40.543802 248,42.307502 l 0,8.722147 c -2e-5,1.460588 1.59451,2.190877 3,2.190871 1.29522,6e-6 1.99981,-0.730283 1.99983,-2.190871 z"/>
      <path d="m 328,33 -12.00017,0 0,-11.52644 c -10e-6,-1.570773 -0.73218,-2.356178 -2.0825,-2.356219 -1.37792,4.1e-5 -1.91735,0.785446 -1.91733,2.356219 l 0,29.39074 c -2e-5,1.625937 0.53941,2.438901 1.91733,2.438893 1.35032,8e-6 2.08249,-0.812956 2.0825,-2.438893 L 315.99983,39 328,39 328,50.946974 C 328,57.423137 323.14926,60.399999 314.08267,60.4 304.76802,60.399999 300,57.285346 300,50.533602 l 0,-28.729344 c 0,-6.751695 4.76802,-10.004209 14.08267,-10.004258 9.06659,4.9e-5 13.67664,3.119247 13.91733,9.590886 z"/>
      <path d="m 360,59.999818 -12.00017,0 0,-38.691606 c -10e-6,-1.46054 -0.6495,-2.19083 -1.99983,-2.190871 -1.37792,4.1e-5 -2.00001,0.702773 -2,2.108197 l 0,38.77428 -12,0 L 332,0 343.99999,0 344,13.454147 c 1.40544,-1.184952 4.08299,-1.77745 7.55534,-1.777499 2.31487,4.9e-5 4.09665,0.606326 5.77772,1.818836 1.68101,1.212603 2.6669,2.82475 2.66694,4.836451 z"/>
      <path d="m 297,32 -12.00018,0 0,-10.52644 c -2e-5,-1.46054 -0.42743,-2.190829 -1.77774,-2.19087 -1.35037,4.1e-5 -2.2221,0.702772 -2.22208,2.108197 l 0,38.608931 -12,0 0,-47.999422 12,0 0,1.6191 c 1.57078,-1.295185 4.2759,-1.942799 7.55534,-1.942848 2.34242,4.9e-5 4.09666,0.626995 5.77772,1.880842 1.68101,1.25394 2.66691,2.900535 2.66694,4.939793 z"/>
      <path d="m 234,40 -16,0 0,11.086519 c 0,1.625938 0.62209,2.438902 2.00001,2.438894 1.35033,8e-6 1.99997,-0.812956 1.99999,-2.438894 L 222,42 l 12,0 0,9.169194 c 0,6.476162 -4.76805,9.230805 -14,9.230806 -9.1493,-10e-7 -14.00034,-2.892434 -14.00034,-9.644179 l 0,-28.729344 C 205.99966,15.274783 210.8507,11.800049 220,11.8 c 9.23195,4.9e-5 14,3.336992 14,9.813105 z m -12,-6 0,-12.30422 c -2e-5,-1.570773 -0.64967,-2.356178 -2,-2.356219 -1.37792,4.1e-5 -2,0.785446 -2,2.356219 L 218,34 z"/>
      <path d="m 171,40 -16,0 0,11.086519 c 0,1.625938 0.62209,2.438902 2.00001,2.438894 1.35033,8e-6 1.99997,-0.812956 1.99999,-2.438894 L 159,42 l 12,0 0,9.169194 c 0,6.476162 -4.76805,9.230805 -14,9.230806 -9.1493,-10e-7 -14.00034,-2.892434 -14.00034,-9.644179 l 0,-28.729344 C 142.99966,15.274783 147.8507,11.800049 157,11.8 c 9.23195,4.9e-5 14,3.336992 14,9.813105 z m -12,-6 0,-12.30422 c -2e-5,-1.570773 -0.64967,-2.356178 -2,-2.356219 -1.37792,4.1e-5 -2,0.785446 -2,2.356219 L 155,34 z"/>
   </g>
   <g fill="#4299a3">
      <path d="m 19.999944,72 c 0,0 -7.168654,-4.62e-4 -9.9999466,-4.62e-4 -6.0300703,0 -9.92472145,-4.111893 -9.9999986939453,-13 l 0,-45.999538 C 0.03263704,3.9541819 3.9750109,0.07483173 9.9999974,0 l 10.0001646,0 -1.64e-4,8 c -4.326979,6.3e-5 -6,2.73157 -6,5 l 0,46.000461 c 0,2.301378 1.672857,4.999547 5.999836,4.999539 z"/>
      <path d="m 364.00022,72 c 0,0 7.16865,-4.62e-4 9.99994,-4.62e-4 6.03008,0 9.92473,-4.111893 10,-13 l 0,-45.999538 c -0.0326,-9.0458181 -3.97501,-12.92516827 -10,-13 L 364,0 l 1.6e-4,8 c 4.32698,6.3e-5 6,2.73157 6,5 l 0,46.000461 c 0,2.301378 -1.67285,4.999547 -5.99983,4.999539 z"/>
   </g>
</svg>